<?xml version="1.0" encoding="iso-8859-1"?>
<!-- Uploaded to: SVG Repo, www.svgrepo.com, Generator: SVG Repo Mixer Tools -->
<svg height="800px" width="800px" version="1.1" id="Layer_1" xmlns="http://www.w3.org/2000/svg" xmlns:xlink="http://www.w3.org/1999/xlink" 
	 viewBox="0 0 507.622 507.622" xml:space="preserve">
<path style="fill:#F4EFEF;" d="M472,276.72H303.6c-8.8,0-17.6,6-17.6,14.8v9.2h-60v-9.2c0-8.8-8.8-14.8-17.6-14.8H40
	c-8.8,0-14,6-14,14.8v63.6c0,33.2,25.2,61.6,58,61.6h60.4c44,0,81.6-37.6,81.6-81.6v-18.4h60v18.4c0,44,37.6,81.6,81.6,81.6H428
	c32.8,0,58-28.8,58-61.6v-63.6C486,282.72,480.8,276.72,472,276.72z"/>
<g>
	<path style="fill:#CDEEF9;" d="M210,292.72v42.4c0,35.2-30.4,65.6-65.6,65.6H84c-24.4,0-42-21.2-42-45.6v-62.4H210"/>
	<path style="fill:#CDEEF9;" d="M302,292.72h168v62.4c0,24.4-17.6,45.6-42,45.6h-60.4c-35.2,0-65.6-30.4-65.6-65.6V292.72"/>
</g>
<path d="M22,338.72h-9.2C0,338.72,0,321.52,0,315.12v-184c0-10,7.6-22,14.8-29.2l19.2-16c1.6-1.6,4.4-1.2,5.6,0.4
	c1.6,1.6,1.2,4.4-0.4,5.6l-18.8,15.6c-6,6-12,16.4-12,23.2v184c0,10.4,1.6,15.6,4.8,15.6h9.2c2.4,0,4,1.6,4,4S24.4,338.72,22,338.72
	z"/>
<path d="M494,338.72h-8c-2.4,0-4-1.6-4-4s1.6-4,4-4h8c4,0,6-8,6-15.6v-184c0-7.6-2.8-18-8.8-23.6L476,91.92c-1.6-1.6-1.6-4,0-5.6
	s4-1.6,5.6,0l15.2,15.6c7.6,7.6,10.8,20.4,10.8,29.2v184C508,329.92,502.8,338.72,494,338.72z"/>
<path d="M144.4,406.72H84c-25.6,0-48-24-48-51.6v-60.4c0-2.4,1.6-4,4-4h166c2.4,0,4,1.6,4,4v40.4
	C210,374.72,180.8,406.72,144.4,406.72z M44,298.72v56.4c0,22.8,19.2,43.6,40,43.6h60.4c31.2,0,58-29.2,58-63.6v-36.4H44z"/>
<path d="M119.6,335.12c-1.2,0-2-0.4-2.8-1.2L82,299.12c-1.6-1.6-1.6-4,0-5.6s4-1.6,5.6,0l34.8,34.8c1.6,1.6,1.6,4,0,5.6
	C121.6,334.72,120.8,335.12,119.6,335.12z"/>
<path d="M178,393.12c-1.2,0-2-0.4-2.8-1.2l-41.6-41.6c-1.6-1.6-1.6-4,0-5.6s4-1.6,5.6,0l41.6,41.6c1.6,1.6,1.6,4,0,5.6
	C180,393.12,178.8,393.12,178,393.12z"/>
<path d="M428,406.72h-60.4c-37.6,0-70.4-33.2-70.4-70.8v-40.4c0-1.2,0.4-2.4,1.6-3.2c0.8-0.8,2-1.6,3.2-1.6h166c2.4,0,4,1.6,4,4
	v60.4C472,380.32,455.6,406.72,428,406.72z M305.6,298.72v37.2c0,32.8,29.6,62.8,62.4,62.8h60.4c22.4,0,36-22,36-43.6v-56.4H305.6z"
	/>
<path d="M374,335.12c-1.2,0-2-0.4-2.8-1.2l-34.8-34.8c-1.6-1.6-1.6-4,0-5.6s4-1.6,5.6,0l34.8,34.8c1.6,1.6,1.6,4,0,5.6
	C376,334.72,374.8,335.12,374,335.12z"/>
<path d="M439.6,401.12c-1.2,0-2-0.4-2.8-1.2l-49.2-49.2c-1.6-1.6-1.6-4,0-5.6s4-1.6,5.6,0l49.2,49.2c1.6,1.6,1.6,4,0,5.6
	C441.6,400.72,440.8,401.12,439.6,401.12z"/>
<path d="M428,422.72h-60.4c-46,0-87.6-41.6-87.6-87.6v-12.4h-52v12.4c0,47.6-38.4,87.6-83.6,87.6H84c-34,0-64-31.6-64-67.6v-63.6
	c0-10,8-16.8,20-16.8h168.4c12,0,19.6,6.4,19.6,16.8v7.2h52v-7.2c0-10.8,12-16.8,23.6-16.8H472c10.8,0,16,5.6,16,16.8v63.6
	C488,392.32,461.2,422.72,428,422.72z M224,314.72h60c2.4,0,4,1.6,4,4v16.4c0,41.6,38,79.6,79.6,79.6H428c32,0,52-30.8,52-59.6
	v-63.6c0-6.8-1.6-8.8-8-8.8H303.6c-6.4,0-15.6,2.8-15.6,8.8v11.2c0,2.4-1.6,4-4,4h-60c-2.4,0-4-1.6-4-4v-11.2
	c0-7.2-6.4-8.8-11.6-8.8H40c-4.4,0-12,1.2-12,8.8v63.6c0,31.6,26.4,59.6,56,59.6h60.4c41.2,0,75.6-36.4,75.6-79.6v-16.4
	C220,316.32,221.6,314.72,224,314.72z"/>
</svg>